<svg viewBox="0 0 25 25" width="300" height="300" xmlns="http://www.w3.org/2000/svg">
<path d="M0 0h25v25H0z" fill="#fff" fill-opacity="40%"></path>
<path fill-rule="evenodd" d="M2 2h7v7H2zm8 0h1v2h-1v1h3V4h-1v5h-1V7h-1V6h3v1h2v5h-1V5h1V2h-1v1h-4zm6 0h7v7h-7zM3 3h5v5H3zm14 0h5v5h-5zM4 4h3v3H4zm14 0h3v3h-3zm-8 4h3v2h-3zm-3 2h2v1H7zm9 0h1v2h-1v1h-2v2h-1v4h1v3h-2v1h-1v-4h1v-5h1v-2h-1v1h-2v-2h6zm2 0h1v1h1v-1h1v2h1v1h-1v1h-3zm4 0h1v1h-1zM2 11h4v1h1v2h2v1H8v-3h1v1H6v1H4v1h1v-2H4v-1H2zm8 3h1v2h-1zm5 0h2v1h1v2h1v-1h2v4h2v1h-2v1h1v1h-2v-2h-2v2h1v-5h-1v1h-2v-4h-1zm7 0h1v1h-3v2h3v1h-3v1h2zM2 16h7v7H2zm1 1h5v5H3zm7 0h7v3h-1v1h1v2h-1v-1h-1v1h-2v-2h-1v-1h3v-2h-5zm-6 1h3v3H4z"></path>
</svg>