<svg viewBox="0 0 25 25" width="300" height="300" xmlns="http://www.w3.org/2000/svg">
<path d="M0 0h25v25H0z" fill="#fff" fill-opacity="40%"></path>
<path fill-opacity="20%" stroke="#000" stroke-width="0.1" d="M2 2h7v1h-7zM10 2h1v1h-1zM14 2h1v1h-1zM16 2h7v1h-7zM2 3h1v1h-1zM8 3h1v1h-1zM11 3h4v1h-4zM16 3h1v1h-1zM22 3h1v1h-1zM2 4h1v1h-1zM4 4h3v1h-3zM8 4h1v1h-1zM10 4h2v1h-2zM13 4h2v1h-2zM16 4h1v1h-1zM18 4h3v1h-3zM22 4h1v1h-1zM2 5h1v1h-1zM4 5h3v1h-3zM8 5h1v1h-1zM12 5h2v1h-2zM16 5h1v1h-1zM18 5h3v1h-3zM22 5h1v1h-1zM2 6h1v1h-1zM4 6h3v1h-3zM8 6h1v1h-1zM10 6h2v1h-2zM13 6h1v1h-1zM16 6h1v1h-1zM18 6h3v1h-3zM22 6h1v1h-1zM2 7h1v1h-1zM8 7h1v1h-1zM11 7h1v1h-1zM14 7h1v1h-1zM16 7h1v1h-1zM22 7h1v1h-1zM2 8h7v1h-7zM10 8h1v1h-1zM12 8h1v1h-1zM14 8h1v1h-1zM16 8h7v1h-7zM10 9h3v1h-3zM14 9h1v1h-1zM7 10h2v1h-2zM14 10h1v1h-1zM16 10h1v1h-1zM18 10h1v1h-1zM20 10h1v1h-1zM22 10h1v1h-1zM2 11h4v1h-4zM10 11h4v1h-4zM15 11h2v1h-2zM18 11h3v1h-3zM4 12h3v1h-3zM8 12h1v1h-1zM10 12h2v1h-2zM13 12h3v1h-3zM18 12h4v1h-4zM5 13h1v1h-1zM7 13h1v1h-1zM13 13h1v1h-1zM18 13h3v1h-3zM4 14h1v1h-1zM8 14h1v1h-1zM10 14h1v1h-1zM12 14h2v1h-2zM15 14h2v1h-2zM22 14h1v1h-1zM10 15h1v1h-1zM12 15h1v1h-1zM16 15h2v1h-2zM20 15h2v1h-2zM2 16h7v1h-7zM12 16h1v1h-1zM16 16h2v1h-2zM19 16h1v1h-1zM21 16h1v1h-1zM2 17h1v1h-1zM8 17h1v1h-1zM10 17h2v1h-2zM13 17h3v1h-3zM17 17h4v1h-4zM22 17h1v1h-1zM2 18h1v1h-1zM4 18h3v1h-3zM8 18h1v1h-1zM12 18h1v1h-1zM15 18h1v1h-1zM17 18h1v1h-1zM19 18h1v1h-1zM21 18h1v1h-1zM2 19h1v1h-1zM4 19h3v1h-3zM8 19h1v1h-1zM11 19h3v1h-3zM15 19h2v1h-2zM19 19h2v1h-2zM2 20h1v1h-1zM4 20h3v1h-3zM8 20h1v1h-1zM11 20h1v1h-1zM14 20h2v1h-2zM19 20h4v1h-4zM2 21h1v1h-1zM8 21h1v1h-1zM11 21h2v1h-2zM14 21h3v1h-3zM18 21h1v1h-1zM20 21h1v1h-1zM2 22h7v1h-7zM11 22h1v1h-1zM13 22h2v1h-2zM16 22h1v1h-1zM18 22h1v1h-1zM20 22h2v1h-2z"></path>
</svg>